<svg version="1" xmlns="http://www.w3.org/2000/svg" width="682.667" height="682.667" viewBox="0 0 512.000000 512.000000"><path d="M160.5 95.7c-51.7 18.4-94.2 33.7-94.4 33.9-.5.5 28.2 250.3 28.9 251.5.3.4 36.7 20.9 80.9 45.3l80.3 44.5 79.7-44c43.8-24.3 80.1-44.6 80.7-45.3 1.5-1.4 30.3-251.5 29.1-252.3-2.1-1.3-188.2-67.3-189.6-67.2-.9 0-43.9 15.1-95.6 33.6zm155.1 144.6l59.2 133.2-22.1.3c-12.1.1-22.2 0-22.5-.2-.2-.3-5.8-13.7-12.3-29.8l-11.7-29.3-50.4-.2-50.3-.3-12 30-12 30h-22.3c-20.9 0-22.4-.1-21.8-1.8C139.7 366.3 255.6 107 256 107c.3 0 27.1 60 59.6 133.3z"/><path d="M239.3 234.3c-8.9 21.5-16.5 40-16.9 40.9-.6 1.7 1.4 1.8 33.6 1.8s34.2-.1 33.6-1.8c-2.8-7.4-33.2-80.2-33.6-80.2-.3 0-7.8 17.7-16.7 39.3z"/></svg>